<svg width="1921" height="661" viewBox="0 0 1921 661" fill="none" xmlns="http://www.w3.org/2000/svg">
<rect width="1921" height="661" fill="#CDCDCD"/>
<path d="M304.492 236.203C304.492 241.984 307.891 248.078 313.594 250.461L311.211 253.898C307.031 252.102 303.984 248.391 302.383 243.898C300.742 248.742 297.656 252.805 293.516 254.758L291.016 251.359C296.602 248.781 300.078 242.219 300.078 236.203V233.234H292.305V229.641H312.227V233.234H304.492V236.203ZM320.547 226.164V261.477H316.172V226.164H320.547ZM354.062 227.883V230.617C354.062 233.352 354.062 236.477 353.203 240.656H358.008V244.172H325.742V240.656H348.828C349.648 236.848 349.727 233.938 349.727 231.359H329.727V227.883H354.062ZM354.023 248.273V261.047H329.609V248.273H354.023ZM333.867 251.672V257.531H349.727V251.672H333.867ZM390.781 229.758V233.195H369.844V229.758H378.164V225.969H382.5V229.758H390.781ZM380.312 234.602C385.43 234.602 388.906 237.219 388.945 241.047C388.906 244.914 385.43 247.531 380.312 247.531C375.195 247.531 371.641 244.914 371.641 241.047C371.641 237.219 375.195 234.602 380.312 234.602ZM380.312 237.922C377.617 237.922 375.859 239.055 375.859 241.047C375.859 243.078 377.617 244.172 380.312 244.172C383.008 244.172 384.805 243.078 384.805 241.047C384.805 239.055 383.008 237.922 380.312 237.922ZM397.656 226.164V235.891H402.578V239.523H397.656V250.891H393.32V226.164H397.656ZM388.711 249.484C388.672 253.508 393.047 257.062 400.195 258L398.594 261.281C393.027 260.5 388.711 258.176 386.562 254.797C384.414 258.176 380.137 260.5 374.57 261.281L372.969 258C380.039 257.062 384.375 253.508 384.375 249.484V248.938H388.711V249.484ZM432.227 226.203V237.297H437.148V240.891H432.227V252.57H427.891V226.203H432.227ZM425.352 230.109V233.586H404.414V230.109H412.734V226.164H417.07V230.109H425.352ZM414.883 235.031C419.961 235.031 423.477 237.727 423.516 241.789C423.477 245.812 419.961 248.469 414.883 248.469C409.766 248.469 406.211 245.812 406.211 241.789C406.211 237.727 409.766 235.031 414.883 235.031ZM414.883 238.391C412.188 238.391 410.43 239.641 410.43 241.789C410.43 243.898 412.188 245.148 414.883 245.109C417.578 245.148 419.375 243.898 419.375 241.789C419.375 239.641 417.578 238.391 414.883 238.391ZM433.633 257.258V260.773H409.609V250.5H413.945V257.258H433.633ZM466.797 229.641C466.797 240.305 463.867 249.445 450.859 255.93L448.477 252.648C454.59 249.621 458.223 246.105 460.273 241.906L449.297 242.961L448.75 239.211L461.602 238.391C462.051 236.75 462.324 235.012 462.461 233.156H450.586V229.641H466.797ZM476.094 226.164V239.992H481.328V243.547H476.094V261.398H471.758V226.164H476.094ZM513.672 226.164V261.477H509.531V226.164H513.672ZM506.641 226.906V259.719H502.5V243.078H498.594V239.211H502.5V226.906H506.641ZM499.492 230.344V233.859H496.992V249.094C498.105 248.996 499.16 248.879 500.156 248.742L500.43 251.906C494.883 253.039 487.617 253.156 483.125 253.156L482.617 249.562L485.82 249.523V233.859H483.32V230.344H499.492ZM489.727 249.445L493.008 249.328V233.859H489.727V249.445ZM549.844 253.586V257.102H517.578V253.586H531.406V245.422H535.703V253.586H549.844ZM535.82 230.891C535.82 236.242 541.172 241.516 548.594 242.688L546.719 246.281C540.742 245.148 535.859 241.73 533.516 237.102C531.172 241.711 526.328 245.188 520.391 246.281L518.516 242.688C525.898 241.516 531.172 236.203 531.211 230.891V228.312H535.82V230.891ZM565.312 231.203C565.312 235.852 568.203 240.227 573.828 241.984L571.68 245.422C567.598 244.055 564.688 241.379 563.125 237.922C561.504 241.633 558.555 244.582 554.375 246.008L552.188 242.609C557.891 240.656 560.82 236.008 560.82 231.203V227.844H565.312V231.203ZM581.562 248.898V261.477H577.188V252.375H557.461V248.898H581.562ZM581.562 226.164V247.297H577.188V226.164H581.562ZM593.594 255.227L590.312 266.164H586.602L588.633 255.227H593.594ZM319.023 274.203V285.297H323.945V288.891H319.023V300.57H314.688V274.203H319.023ZM312.148 278.109V281.586H291.211V278.109H299.531V274.164H303.867V278.109H312.148ZM301.68 283.031C306.758 283.031 310.273 285.727 310.312 289.789C310.273 293.812 306.758 296.469 301.68 296.469C296.562 296.469 293.008 293.812 293.008 289.789C293.008 285.727 296.562 283.031 301.68 283.031ZM301.68 286.391C298.984 286.391 297.227 287.641 297.227 289.789C297.227 291.898 298.984 293.148 301.68 293.109C304.375 293.148 306.172 291.898 306.172 289.789C306.172 287.641 304.375 286.391 301.68 286.391ZM320.43 305.258V308.773H296.406V298.5H300.742V305.258H320.43ZM354.336 284.125V287.562H329.961V275.258H334.336V284.125H354.336ZM357.969 291.078V294.516H344.336V301.117H340.039V294.516H325.742V291.078H357.969ZM354.609 305.258V308.773H329.648V298.266H333.945V305.258H354.609ZM390.781 274.164V309.477H386.602V274.164H390.781ZM383.516 274.789V307.758H379.375V290.961H376.016C375.605 297.836 372.656 302.094 368.281 302.055C363.672 302.094 360.664 297.211 360.664 289.438C360.664 281.664 363.672 276.859 368.281 276.859C372.559 276.859 375.469 280.844 375.977 287.445H379.375V274.789H383.516ZM368.281 280.961C366.055 280.922 364.648 283.93 364.688 289.438C364.648 294.945 366.055 297.953 368.281 297.914C370.625 297.953 372.031 294.945 372.031 289.438C372.031 283.93 370.625 280.922 368.281 280.961ZM436.641 301.625V305.18H404.375V301.625H418.281V293.93H407.93V276.898H432.93V293.93H422.578V301.625H436.641ZM412.188 280.375V290.531H428.633V280.375H412.188ZM448.438 276.742C453.75 276.742 457.578 281.586 457.617 289.203C457.578 296.898 453.75 301.703 448.438 301.703C443.086 301.703 439.219 296.898 439.258 289.203C439.219 281.586 443.086 276.742 448.438 276.742ZM448.438 280.648C445.469 280.648 443.438 283.812 443.438 289.203C443.438 294.633 445.469 297.797 448.438 297.797C451.445 297.797 453.438 294.633 453.438 289.203C453.438 283.812 451.445 280.648 448.438 280.648ZM466.602 274.164V287.719H472.031V291.391H466.602V309.477H462.266V274.164H466.602ZM479.609 277.016V281.742H488.789V277.016H493.125V293.148H486.406V298.812C489.297 298.656 492.207 298.441 494.922 298.07L495.234 301.273C487.852 302.562 479.766 302.602 473.711 302.641L473.086 299.047C475.762 299.027 478.848 299.027 482.07 298.93V293.148H475.312V277.016H479.609ZM479.609 289.672H488.789V285.062H479.609V289.672ZM501.289 274.164V288.5H506.406V292.133H501.289V309.477H496.953V274.164H501.289ZM540.352 301.625V305.18H508.086V301.625H515.547V292.68C512.734 291.078 511.035 288.559 511.055 285.414C511.016 279.789 516.562 276.078 524.141 276.078C531.758 276.078 537.305 279.789 537.305 285.414C537.305 288.5 535.664 290.98 532.93 292.602V301.625H540.352ZM524.141 279.516C518.867 279.516 515.273 281.742 515.312 285.414C515.273 289.047 518.867 291.312 524.141 291.312C529.414 291.312 533.047 289.047 533.047 285.414C533.047 281.742 529.414 279.516 524.141 279.516ZM519.844 301.625H528.516V294.242C527.168 294.555 525.703 294.711 524.141 294.711C522.617 294.711 521.172 294.555 519.844 294.281V301.625Z" fill="black"/>
<path d="M302.016 334.375V348.297H300.781V334.375H302.016ZM294.625 335.453C296.688 335.469 298.172 337.344 298.172 340.297C298.172 343.25 296.688 345.125 294.625 345.125C292.547 345.125 291.078 343.25 291.078 340.297C291.078 337.344 292.547 335.469 294.625 335.453ZM294.625 336.547C293.234 336.562 292.266 338.031 292.266 340.297C292.266 342.562 293.234 344.031 294.625 344.031C296.016 344.031 296.984 342.562 296.984 340.297C296.984 338.031 296.016 336.562 294.625 336.547ZM316.188 334.375V344.938H315.016V334.375H316.188ZM313.531 334.656V344.516H312.359V339.438H310.438V342.297H305.031V335.5H306.188V337.844H309.281V335.5H310.438V338.422H312.359V334.656H313.531ZM306.188 341.281H309.281V338.812H306.188V341.281ZM316.609 346.938V347.969H307.078V343.516H308.297V346.938H316.609ZM329.469 341.891V342.891H319.859V335.578H329.312V336.609H321.109V338.672H329.016V339.656H321.109V341.891H329.469ZM330.938 345.438V346.453H318.219V345.438H330.938ZM334.328 345.953L333.109 350.203H331.953L332.812 345.953H334.328ZM351.641 334.391V344.578H350.422V334.391H351.641ZM352.078 346.938V347.969H342.672V343.641H343.891V346.938H352.078ZM345.094 336.562C345.078 338.672 346.531 340.578 348.594 341.328L347.953 342.312C346.344 341.695 345.094 340.445 344.484 338.844C343.867 340.547 342.602 341.914 340.984 342.562L340.312 341.609C342.422 340.797 343.844 338.75 343.844 336.562V335.172H345.094V336.562ZM359.828 336V339.625H361.938V334.672H363.109V347.562H361.938V340.641H359.828V344.531H354.516V336H359.828ZM355.672 336.984V343.547H358.672V336.984H355.672ZM365.906 334.375V348.266H364.719V334.375H365.906ZM379 339.078V340.094H369.438V335.094H370.688V339.078H379ZM380.484 342.109V343.125H377.188V348.266H375.969V343.125H372.359V348.266H371.141V343.125H367.828V342.109H380.484ZM383.938 345.953L382.719 350.203H381.562L382.422 345.953H383.938ZM401.25 334.391V344.578H400.031V334.391H401.25ZM401.688 346.938V347.969H392.281V343.641H393.5V346.938H401.688ZM394.703 336.562C394.688 338.672 396.141 340.578 398.203 341.328L397.562 342.312C395.953 341.695 394.703 340.445 394.094 338.844C393.477 340.547 392.211 341.914 390.594 342.562L389.922 341.609C392.031 340.797 393.453 338.75 393.453 336.562V335.172H394.703V336.562ZM414.516 335.281V336.344C414.516 337.594 414.516 339.141 414.125 341.344H416.266V342.359H412.922V348.266H411.703V342.359H408.141V348.266H406.922V342.359H403.609V341.344H412.875C413.328 339.156 413.328 337.586 413.328 336.344V336.297H405.234V335.281H414.516ZM427.781 335.281C430.734 335.297 432.859 336.734 432.859 338.922C432.859 340.992 431.016 342.367 428.375 342.531V345.453H434.172V346.484H421.453V345.453H427.172V342.531C424.539 342.359 422.703 340.984 422.703 338.922C422.703 336.734 424.828 335.297 427.781 335.281ZM427.781 336.297C425.531 336.297 423.891 337.359 423.891 338.922C423.891 340.531 425.531 341.562 427.781 341.578C430.031 341.562 431.672 340.531 431.672 338.922C431.672 337.359 430.031 336.297 427.781 336.297ZM446.734 335.094V336.094H444.594V339.297H446.688V340.281H436.516V339.297H438.609V336.094H436.469V335.094H446.734ZM447.938 341.797V342.812H435.281V341.797H447.938ZM446.531 346.938V347.969H436.922V344.078H438.156V346.938H446.531ZM439.828 339.297H443.375V336.094H439.828V339.297ZM460.109 334.375V340.109H462.219V341.141H460.109V348.266H458.875V334.375H460.109ZM453.328 335.891C453.312 339.203 452.562 342.453 450.047 345.125L449.062 344.422C451.164 342.273 452.008 339.688 452.172 336.922H449.5V335.891H453.328ZM457.141 335.891C457.125 339.188 456.641 343.016 454.047 346.047L453.047 345.359C455.219 342.906 455.875 339.82 455.984 336.922H453.766V335.891H457.141ZM467.906 338.641C467.906 341 469.625 343.391 471.672 344.281L470.984 345.25C469.359 344.508 467.953 342.906 467.312 340.984C466.656 343.023 465.258 344.797 463.672 345.594L462.938 344.625C464.922 343.672 466.656 341.047 466.672 338.641V336.828H463.391V335.812H471.219V336.828H467.906V338.641ZM474.391 334.375V348.266H473.156V334.375H474.391ZM478.234 347.094C477.688 347.094 477.219 346.641 477.234 346.078C477.219 345.531 477.688 345.078 478.234 345.078C478.781 345.078 479.234 345.531 479.234 346.078C479.234 346.641 478.781 347.094 478.234 347.094ZM497.828 339.922V340.953H495.578V348.266H494.359V334.375H495.578V339.922H497.828ZM486.625 335.75V343.703C488.656 343.695 490.727 343.539 493.016 343.062L493.172 344.109C490.781 344.594 488.625 344.734 486.516 344.734H485.406V335.75H486.625ZM505.672 335.641V342.031H499.25V335.641H505.672ZM500.453 336.641V341.047H504.484V336.641H500.453ZM509.516 334.375V338.609H511.609V339.641H509.516V344.562H508.297V334.375H509.516ZM510.156 346.938V347.969H500.828V343.594H502.031V346.938H510.156ZM527.359 334.375V337.391H529.453V338.422H527.359V341.453H526.141V334.375H527.359ZM527.359 342.109V345.5H519.734V347.094H527.875V348.078H518.531V344.562H526.141V343.094H518.5V342.109H527.359ZM520.375 334.891C522.469 334.906 523.984 336.156 523.984 337.969C523.984 339.797 522.469 341.062 520.375 341.062C518.297 341.062 516.75 339.797 516.766 337.969C516.75 336.156 518.297 334.906 520.375 334.891ZM520.375 335.922C518.984 335.906 517.953 336.766 517.969 337.969C517.953 339.188 518.984 340.062 520.375 340.062C521.766 340.062 522.781 339.188 522.781 337.969C522.781 336.766 521.766 335.906 520.375 335.922ZM541.812 334.375V348.266H540.578V334.375H541.812ZM537.703 335.891C537.688 339.891 535.828 343.422 531.172 345.656L530.5 344.656C534.258 342.875 536.172 340.211 536.453 336.891H531.141V335.891H537.703ZM551.891 335.453C553.938 335.469 555.391 337.344 555.406 340.297C555.391 343.25 553.938 345.125 551.891 345.125C549.828 345.125 548.391 343.25 548.391 340.297C548.391 337.344 549.828 335.469 551.891 335.453ZM551.891 336.547C550.516 336.562 549.547 338.031 549.547 340.297C549.547 342.562 550.516 344.031 551.891 344.031C553.281 344.031 554.219 342.562 554.219 340.297C554.219 338.031 553.281 336.562 551.891 336.547ZM558.922 334.375V339.922H561.25V340.984H558.922V348.266H557.703V334.375H558.922ZM573 334.375V340.109H575.109V341.141H573V348.266H571.766V334.375H573ZM566.219 335.891C566.203 339.203 565.453 342.453 562.938 345.125L561.953 344.422C564.055 342.273 564.898 339.688 565.062 336.922H562.391V335.891H566.219ZM570.031 335.891C570.016 339.188 569.531 343.016 566.938 346.047L565.938 345.359C568.109 342.906 568.766 339.82 568.875 336.922H566.656V335.891H570.031ZM588.531 341.438V342.453H582.891V345.297H581.656V342.453H575.812V341.438H588.531ZM587.109 346.922V347.969H577.453V343.906H578.688V346.922H587.109ZM582.156 334.734C585.125 334.75 587.047 335.812 587.047 337.531C587.047 339.25 585.125 340.297 582.156 340.297C579.188 340.297 577.25 339.25 577.25 337.531C577.25 335.812 579.188 334.75 582.156 334.734ZM582.156 335.734C580 335.734 578.547 336.422 578.562 337.531C578.547 338.609 580 339.297 582.156 339.297C584.312 339.297 585.75 338.609 585.75 337.531C585.75 336.422 584.312 335.734 582.156 335.734ZM600.875 335.828C600.859 339.844 599.5 343.516 594.5 345.969L593.812 345.031C596.43 343.766 598 342.156 598.844 340.281L594.078 340.734L593.875 339.656L599.219 339.297C599.461 338.516 599.602 337.695 599.656 336.844H594.578V335.828H600.875ZM604.422 334.375V340.031H606.672V341.062H604.422V348.266H603.203V334.375H604.422ZM619.453 334.375V348.266H618.266V334.375H619.453ZM616.734 334.719V347.531H615.562V340.766H613.625V339.656H615.562V334.719H616.734ZM614.031 336.156V337.172H612.859V343.594C613.383 343.562 613.883 343.516 614.344 343.453L614.422 344.359C612.234 344.766 609.312 344.828 607.5 344.828L607.344 343.781L608.812 343.766V337.172H607.641V336.156H614.031ZM609.938 343.75C610.516 343.734 611.125 343.711 611.719 343.672V337.172H609.938V343.75ZM638.062 345.438V346.453H625.344V345.438H631.031V342.031H632.234V345.438H638.062ZM632.266 336.391C632.266 338.719 635.016 340.75 637.438 341.172L636.891 342.188C634.773 341.758 632.539 340.32 631.641 338.312C630.727 340.312 628.508 341.758 626.391 342.188L625.844 341.172C628.266 340.75 630.984 338.719 630.984 336.391V335.328H632.266V336.391ZM644.094 336.391C644.078 338.422 645.547 340.219 647.609 340.938L646.984 341.906C645.375 341.32 644.102 340.117 643.484 338.578C642.867 340.227 641.578 341.523 639.953 342.156L639.312 341.188C641.391 340.422 642.844 338.484 642.844 336.391V335.062H644.094V336.391ZM650.641 343.438V348.266H649.422V344.453H641.297V343.438H650.641ZM650.641 334.375V342.75H649.422V334.375H650.641ZM659.328 334.625C662.422 334.625 664.234 335.469 664.234 337.016C664.234 338.594 662.422 339.438 659.328 339.453C656.234 339.438 654.406 338.594 654.406 337.016C654.406 335.469 656.234 334.625 659.328 334.625ZM659.328 335.547C657.016 335.547 655.672 336.109 655.688 337.016C655.672 337.984 657.016 338.516 659.328 338.516C661.625 338.516 662.984 337.984 662.984 337.016C662.984 336.109 661.625 335.547 659.328 335.547ZM665.656 340.391V341.391H653V340.391H665.656ZM664.031 342.594V345.703H655.781V347.141H664.453V348.109H654.562V344.797H662.828V343.531H654.531V342.594H664.031ZM681.594 334.375V340.031H683.844V341.062H681.594V348.266H680.375V334.375H681.594ZM678 335.875C678 339.812 676.156 343.391 671.625 345.625L670.938 344.656C674.531 342.867 676.484 340.195 676.766 336.906H671.578V335.875H678ZM689.375 337.016C689.375 338.828 690.734 340.453 692.781 341.125L692.203 342.094C690.602 341.57 689.391 340.461 688.797 339.062C688.195 340.656 686.914 341.898 685.25 342.5L684.625 341.516C686.703 340.812 688.156 339.016 688.172 337.016V336.422H685V335.406H692.5V336.422H689.375V337.016ZM695.531 334.375V337.922H697.625V338.953H695.531V342.766H694.312V334.375H695.531ZM691.078 343.141C693.938 343.141 695.656 344.078 695.656 345.672C695.656 347.297 693.938 348.234 691.078 348.234C688.219 348.234 686.469 347.297 686.469 345.672C686.469 344.078 688.219 343.141 691.078 343.141ZM691.078 344.125C688.984 344.125 687.688 344.703 687.703 345.672C687.688 346.672 688.984 347.25 691.078 347.25C693.188 347.25 694.469 346.672 694.469 345.672C694.469 344.703 693.188 344.125 691.078 344.125ZM713.641 334.375V339.812H715.531V340.859H713.641V348.266H712.422V334.375H713.641ZM703.859 335.672V339.266H705.609V335.672H706.656V344.906H702.797V335.672H703.859ZM703.859 343.875H705.609V340.25H703.859V343.875ZM708.453 335.672V339.266H710.156V335.672H711.203V344.906H707.406V335.672H708.453ZM708.453 343.875H710.156V340.25H708.453V343.875ZM729.062 345.484V346.516H716.344V345.484H729.062ZM727.453 335.438V339.641H719.156V341.922H727.781V342.906H717.938V338.641H726.25V336.453H717.906V335.438H727.453ZM742.062 334.375V348.266H740.891V334.375H742.062ZM739.141 334.75V347.562H737.969V341.078H735.031C734.18 342.695 732.844 344.125 730.906 345.266L730.188 344.375C733.211 342.586 734.727 340.078 734.953 337.172H730.781V336.156H736.172C736.164 337.523 735.945 338.844 735.484 340.078H737.969V334.75H739.141ZM755.031 335.641V342.031H748.609V335.641H755.031ZM749.812 336.641V341.047H753.844V336.641H749.812ZM758.875 334.375V338.609H760.969V339.641H758.875V344.562H757.656V334.375H758.875ZM759.516 346.938V347.969H750.188V343.594H751.391V346.938H759.516ZM774.844 339.922V340.953H772.594V348.266H771.375V334.375H772.594V339.922H774.844ZM763.641 335.75V343.703C765.672 343.695 767.742 343.539 770.031 343.062L770.188 344.109C767.797 344.594 765.641 344.734 763.531 344.734H762.422V335.75H763.641ZM788.391 345.469V346.484H775.672V345.469H781.391V342.469H777.172V335.359H778.406V337.875H785.625V335.359H786.828V342.469H782.594V345.469H788.391ZM778.406 341.469H785.625V338.875H778.406V341.469ZM793.625 338.328C793.625 340.531 794.703 342.922 796.547 344.016L795.844 344.969C794.508 344.156 793.547 342.672 793.062 340.984C792.547 342.828 791.516 344.414 790.125 345.266L789.344 344.344C791.266 343.219 792.438 340.75 792.438 338.375V335.688H793.625V338.328ZM801.406 334.375V348.266H800.219V334.375H801.406ZM798.531 334.672V347.562H797.375V340.406H795.016V339.359H797.375V334.672H798.531ZM816.047 345.453V346.484H803.328V345.453H806.484V341.703C805.297 341.086 804.578 340.086 804.578 338.828C804.578 336.672 806.688 335.266 809.656 335.25C812.625 335.266 814.734 336.672 814.734 338.828C814.734 340.062 814.039 341.055 812.891 341.672V345.453H816.047ZM809.656 336.266C807.375 336.25 805.766 337.281 805.766 338.828C805.766 340.375 807.375 341.422 809.656 341.422C811.922 341.422 813.547 340.375 813.547 338.828C813.547 337.281 811.922 336.25 809.656 336.266ZM807.688 345.453H811.656V342.141C811.055 342.305 810.383 342.391 809.656 342.391C808.945 342.391 808.281 342.312 807.688 342.156V345.453ZM818.625 347.094C818.078 347.094 817.609 346.641 817.625 346.078C817.609 345.531 818.078 345.078 818.625 345.078C819.172 345.078 819.625 345.531 819.625 346.078C819.625 346.641 819.172 347.094 818.625 347.094Z" fill="black"/>
</svg>
