<svg width="165" height="33" viewBox="0 0 165 33" fill="none" xmlns="http://www.w3.org/2000/svg">
<g clip-path="url(#clip0_781_34614)">
<path d="M138.859 24.5182L138.618 9.27107H141.316L141.557 24.5182H138.859Z" fill="#335E54"/>
<path d="M156.492 9.27107L162.022 18.9681V9.27107H165.006V24.5182H162.194L156.701 14.84V24.5182H153.622V9.27107H156.492Z" fill="#335E54"/>
<path d="M126.553 9.27107V11.8582H119.728V15.5729H125.963V18.16H119.728V24.5182H116.648V9.27107H126.553Z" fill="#335E54"/>
<path d="M104.584 9.27107V11.8582H97.758V15.5729H103.993V18.16H97.758V24.5182H94.6785V9.27107H104.584Z" fill="#335E54"/>
<path d="M50.0346 24.5245C47.825 24.5245 46.117 23.9795 44.9486 22.9083C43.793 21.8434 43.2088 20.1959 43.2088 18.0159V15.1469C43.2088 13.7813 43.4946 12.5974 44.047 11.6264C44.5994 10.6617 45.3867 9.91629 46.39 9.40888C47.4059 8.89522 48.5996 8.63838 49.933 8.63838C51.1458 8.63838 52.2633 8.8451 53.2539 9.25228C54.2254 9.64692 55.019 10.2483 55.6159 11.0438C56.1302 11.7267 56.4477 12.5473 56.5683 13.4869H53.6285C53.4317 12.7853 53.0253 12.2278 52.4348 11.8331C51.7744 11.3946 50.949 11.1754 49.9838 11.1754C48.2822 11.1754 46.2566 11.9146 46.2566 15.4351V17.7466C46.2566 19.1748 46.5297 20.221 47.0821 20.9351C47.6535 21.6743 48.6441 22.0501 50.0346 22.0501C51.0442 22.0501 51.8887 21.8371 52.5427 21.4174C53.1459 21.0353 53.5269 20.4402 53.6793 19.6572H56.5176C56.4414 21.2733 55.8762 22.4385 54.8095 23.2215C53.6285 24.086 52.0221 24.5245 50.0346 24.5245Z" fill="#335E54"/>
<path d="M75.6298 25.0444C74.29 25.0444 73.0709 24.8001 72.0169 24.3178C70.9819 23.8479 70.1501 23.1213 69.5469 22.1503C68.9437 21.1856 68.6325 19.9767 68.6325 18.5484V15.2346C68.6325 13.8252 68.9373 12.6224 69.5469 11.664C70.1564 10.6931 70.9882 9.96014 72.0232 9.48405C73.0772 8.99544 74.2964 8.74487 75.6361 8.74487C76.9759 8.74487 78.195 8.99544 79.249 9.48405C80.284 9.96014 81.1094 10.6931 81.7063 11.6515C82.3032 12.6099 82.608 13.8126 82.608 15.2409V18.5547C82.608 19.9767 82.3032 21.1856 81.6936 22.1378C81.0841 23.0962 80.2523 23.8292 79.2236 24.3052C78.1696 24.7938 76.9568 25.0444 75.6298 25.0444ZM75.6298 11.2318C74.3281 11.2318 73.2995 11.5888 72.5693 12.2842C71.8327 12.9983 71.4581 14.0695 71.4581 15.4727V18.2728C71.4581 19.676 71.8327 20.7534 72.5629 21.4801C73.2931 22.2067 74.3218 22.5638 75.6298 22.5638C78.2966 22.5638 79.7062 21.0792 79.7062 18.2728V15.4727C79.7062 12.6976 78.2966 11.238 75.6298 11.238V11.2318Z" fill="#335E54"/>
<path d="M25.8872 3.75228C23.5188 1.3656 19.0741 0 13.6833 0C8.75606 0 4.57169 1.34055 2.1906 3.68337C0.679401 5.16799 -0.0571493 6.9533 -3.12249e-06 9.00171C0.0698422 11.4072 1.24451 13.656 3.12399 15.4664C2.79381 16.2494 2.77476 17.0325 2.97795 17.7027C3.55576 19.6071 6.55911 21.2295 10.4895 21.8872C10.5022 21.9499 10.5149 22.0063 10.5276 22.0689C11.734 28.3958 12.2674 33 14.2802 33C16.293 33 16.8264 28.3958 18.0328 22.0689C18.0455 22.0063 18.0582 21.9374 18.0709 21.8685C22.2299 21.1355 25.3221 19.2876 25.6459 17.7528C25.7602 17.2016 25.7348 16.4436 25.4173 15.6293C26.8333 13.8878 27.6079 11.5638 27.773 8.61333C27.8746 6.75285 27.2397 5.11788 25.8872 3.75228Z" fill="#335E54"/>
<path d="M24.6554 8.67597C24.6554 11.8144 23.995 13.3679 22.033 14.8024C20.1916 16.1367 17.455 16.8383 14.0834 16.8383C11.8039 16.8383 8.57193 16.3872 6.12099 14.2261C3.99388 12.3531 3.12399 10.8497 3.12399 9.0393C3.12399 6.34567 5.2765 4.56663 8.14016 3.61447C8.21635 3.70217 8.33699 3.77734 8.54018 3.79613C13.0166 4.25342 19.1694 5.21185 20.9472 8.26253C21.652 9.46526 21.9124 10.881 21.7282 12.4972C21.7282 12.541 21.7155 12.5661 21.7155 12.5911V12.6726C21.6965 12.9356 21.7028 13.1486 21.887 13.2113C21.906 13.2238 21.9759 13.2363 22.0013 13.2363C22.2362 13.2363 22.4203 12.9607 22.5219 12.7477C22.6934 12.4345 23.6204 9.89123 22.7759 7.74886C21.3854 4.21583 13.9119 3.24488 10.4895 3.04442C11.5435 2.86902 12.623 2.78132 13.696 2.78132C18.7503 2.78132 24.6554 4.32232 24.6554 8.67597Z" fill="white"/>
</g>
<defs>
<clipPath id="clip0_781_34614">
<rect width="165" height="33" fill="white"/>
</clipPath>
</defs>
</svg>
