<svg width="45" height="45" viewBox="0 0 45 45" fill="none" xmlns="http://www.w3.org/2000/svg">
<path fill-rule="evenodd" clip-rule="evenodd" d="M28.5 18C28.5 19.5913 27.8679 21.1174 26.7426 22.2426C25.6174 23.3679 24.0913 24 22.5 24C20.9087 24 19.3826 23.3679 18.2574 22.2426C17.1321 21.1174 16.5 19.5913 16.5 18C16.5 16.4087 17.1321 14.8826 18.2574 13.7574C19.3826 12.6321 20.9087 12 22.5 12C24.0913 12 25.6174 12.6321 26.7426 13.7574C27.8679 14.8826 28.5 16.4087 28.5 18ZM25.5 18C25.5 18.7956 25.1839 19.5587 24.6213 20.1213C24.0587 20.6839 23.2956 21 22.5 21C21.7043 21 20.9413 20.6839 20.3787 20.1213C19.8161 19.5587 19.5 18.7956 19.5 18C19.5 17.2043 19.8161 16.4413 20.3787 15.8787C20.9413 15.3161 21.7043 15 22.5 15C23.2956 15 24.0587 15.3161 24.6213 15.8787C25.1839 16.4413 25.5 17.2043 25.5 18Z" fill="#335E54"/>
<path fill-rule="evenodd" clip-rule="evenodd" d="M22.5 6C13.3875 6 6 13.3875 6 22.5C6 31.6125 13.3875 39 22.5 39C31.6125 39 39 31.6125 39 22.5C39 13.3875 31.6125 6 22.5 6ZM9 22.5C9 25.635 10.0695 28.521 11.862 30.813C13.1212 29.1602 14.7452 27.8207 16.6075 26.8991C18.4697 25.9775 20.5197 25.4987 22.5975 25.5C24.6486 25.4976 26.6731 25.9636 28.5167 26.8626C30.3603 27.7615 31.9743 29.0695 33.2355 30.687C34.5352 28.9824 35.4103 26.9928 35.7883 24.8829C36.1664 22.7729 36.0366 20.6033 35.4097 18.5535C34.7828 16.5037 33.6768 14.6326 32.1832 13.0951C30.6896 11.5575 28.8514 10.3978 26.8206 9.71176C24.7898 9.02574 22.6248 8.83316 20.5048 9.14996C18.3848 9.46676 16.3707 10.2838 14.6292 11.5336C12.8876 12.7833 11.4687 14.4298 10.4898 16.3368C9.51097 18.2438 9.00027 20.3565 9 22.5ZM22.5 36C19.4009 36.005 16.3952 34.9388 13.992 32.982C14.9592 31.5969 16.2468 30.4661 17.7451 29.6857C19.2434 28.9053 20.9081 28.4985 22.5975 28.5C24.2658 28.4985 25.9103 28.8952 27.3945 29.657C28.8787 30.4188 30.1596 31.5237 31.131 32.88C28.7092 34.9005 25.654 36.0049 22.5 36Z" fill="#335E54"/>
</svg>
